/* XPM */
static char *dummy[]={
"24 24 272 2",
"Qt c None",
"b7 c #0e0f07",
"cf c #14110c",
"bJ c #16150a",
"aU c #161610",
".Z c #201f19",
"bI c #221f12",
"bc c #222118",
"#0 c #262419",
".P c #272319",
"bu c #272414",
"ai c #27251a",
"## c #2a2923",
".d c #2d2619",
"bW c #30250b",
"ck c #322e2c",
"ce c #323430",
"cn c #343331",
"aC c #35311e",
".0 c #383533",
"aV c #393b38",
"aT c #3b351d",
"cl c #3e3b3a",
"b6 c #40350f",
"bt c #403817",
"bb c #413b20",
"#m c #493e2d",
"bX c #4c4746",
"#d c #51421d",
"bs c #53471e",
"bd c #535452",
"aX c #555652",
"b5 c #564512",
"#u c #564823",
"bH c #574819",
".j c #5a3f1a",
"br c #5a4c22",
"b8 c #5b5655",
"#x c #5c4c24",
".C c #5d4019",
"#G c #5d4e29",
".a c #5d5447",
"cj c #5d5d5b",
"cd c #605f5d",
".c c #612510",
".J c #614216",
"ba c #615425",
"b4 c #64582c",
".s c #655538",
"#w c #655a2a",
"aB c #685c2b",
"#Z c #695732",
"#t c #69592f",
"aS c #695c2d",
"a9 c #6c5725",
"aY c #6c6c65",
"aZ c #6d6750",
"aW c #6e6f6d",
".e c #6f593d",
"ci c #70716d",
".2 c #71603b",
".Q c #725d40",
"aj c #735e18",
"bB c #746b4a",
".1 c #75654c",
"#f c #766e52",
"cm c #767271",
"bV c #776117",
".H c #785915",
"#l c #795114",
"#c c #796d44",
".t c #7a5114",
"aw c #7b642e",
"b3 c #7b7967",
"#. c #7c521a",
".I c #7c633d",
"bq c #7c6927",
"aD c #7c6a33",
"b9 c #7c7776",
".S c #7d662e",
".Y c #7e5f34",
"#D c #7e6723",
"cg c #7e7e7c",
"aO c #7f6f36",
"bj c #7f7249",
"bR c #7f7b69",
"bK c #817c7b",
"a0 c #827145",
"bG c #836b23",
"ax c #857040",
"ch c #878784",
"c. c #878785",
"#e c #886020",
".O c #886535",
"#S c #896418",
"bY c #8a8584",
"#z c #8b6313",
".r c #8d5f22",
"bi c #8d8772",
"#C c #8e6618",
"bU c #8e731d",
".i c #8f5b19",
"bT c #90772b",
"bS c #907b3d",
"aa c #916d26",
"#Q c #91731f",
"#H c #917b3b",
"c# c #928e8c",
"bZ c #928f8d",
"#s c #937c45",
"#9 c #93803b",
"bE c #947a2d",
"#N c #947c3a",
".k c #955d18",
"ae c #957b37",
"ah c #967d40",
"bA c #97917e",
"at c #987827",
"be c #989a97",
"#p c #99823d",
"#a c #998b75",
"bM c #999795",
"#y c #9a6315",
"#A c #9a6c17",
"bC c #9a7f38",
"#Y c #9a8346",
"b. c #9a8539",
"aN c #9a8954",
"bf c #9a9c98",
"#o c #9c641b",
"af c #9c8043",
"as c #9c853c",
".b c #9d7763",
"#v c #9d7924",
"bF c #9d8131",
".h c #9e4d13",
".M c #9e7041",
"bL c #9e9c9a",
".R c #9f6913",
"#T c #9f7522",
"ad c #9f7d2e",
"bv c #9f9e9b",
"a. c #a08735",
"#O c #a18136",
".N c #a18364",
"#1 c #a18b40",
"#k c #a2711d",
"#j c #a2762a",
"#b c #a27f4c",
"bD c #a28a3c",
"bn c #a28b43",
"#r c #a28b49",
"#P c #a28f45",
".B c #a37426",
"aA c #a38b3b",
"#V c #a47f2c",
"a6 c #a4862b",
"bw c #a4a3a1",
"bk c #a58f45",
"bg c #a5a49a",
".G c #a66f19",
"#F c #a68237",
"aR c #a68a33",
"cc c #a6a7a5",
"#R c #a76813",
".f c #a78347",
"bo c #a78e46",
"bx c #aaa9a5",
"#q c #ab8f3e",
"aM c #ab9258",
"#B c #ac7e25",
"bh c #aca898",
"a1 c #ad944b",
"aE c #ad9548",
"bp c #ad954e",
".3 c #af8239",
"b# c #af953d",
"#8 c #af974c",
".g c #b27951",
"#g c #b2a57f",
"ca c #b2b4b0",
"a# c #b38524",
"aP c #b39c54",
"aQ c #b4983d",
"av c #b59a5a",
".T c #b59a66",
".# c #b68e71",
"ay c #b89f51",
"#i c #b99856",
"ag c #b99a52",
"#M c #b99f51",
"aL c #ba9e45",
"bN c #babab7",
".v c #bb7a23",
"ac c #bb9b50",
"a8 c #bba059",
"cb c #bcbbb9",
"#U c #bd9845",
".F c #be8b3e",
"bl c #be9a3b",
"ak c #be9f46",
"by c #bebbad",
"bQ c #bebeb6",
".q c #bf7712",
".E c #bf8241",
"bm c #bfa964",
"#W c #c09d33",
"au c #c09e65",
"a5 c #c0a966",
".A c #c19638",
"a7 c #c2a857",
"az c #c3a74b",
".L c #c4994c",
"ar c #c5a851",
"b0 c #c5c4bf",
"ab c #c6a25b",
"bz c #c6c3b4",
"#X c #c7a54d",
"a2 c #c7a94e",
".l c #c89542",
"#7 c #c8a94c",
"aK c #c8ae57",
".X c #c8af7b",
".u c #ca892b",
".9 c #ca9330",
".D c #cd9b53",
".W c #cda648",
"#h c #ce9c47",
".o c #cf7d28",
".K c #cf9845",
"#E c #cfaa62",
"aF c #cfb35e",
".p c #d18115",
"#I c #d1bb7c",
".z c #d29b33",
".V c #d2a030",
"#L c #d2b255",
"aq c #d3b047",
"a3 c #d4b962",
"aJ c #d4bb6b",
".8 c #d5b156",
"bO c #d6d3c5",
".w c #d7a75f",
"ap c #d7b552",
"#K c #d7b85a",
"al c #d7bd68",
".n c #d8ad7d",
"#2 c #d8c178",
"aI c #dac382",
".4 c #daca9d",
".U c #dba34f",
"#n c #dbb074",
"#6 c #dbb859",
"aG c #dbc275",
"a4 c #dcc88c",
"b2 c #dcdedb",
".6 c #deb251",
"ao c #dec575",
".y c #dfae5c",
"#J c #dfc476",
".7 c #e0c14c",
"#5 c #e0c166",
"am c #e0ca88",
"#4 c #e1ca84",
".x c #e2c091",
"aH c #e3cd8c",
"an c #e3ce91",
"bP c #e4e1d4",
"#3 c #e5d093",
".5 c #e5d8ac",
"b1 c #e9eae5",
".m c #ead09f",
"QtQtQtQtQtQtQtQtQtQtQtQtQtQtQtQtQtQtQtQtQtQtQtQt",
"QtQtQtQtQtQtQtQtQtQtQtQtQtQtQt.#QtQtQtQtQtQtQtQt",
"QtQtQtQtQtQtQtQtQtQtQtQtQtQt.a.b.c.dQtQtQtQtQtQt",
"QtQtQtQtQtQtQtQtQtQtQtQtQt.e.f.g.h.i.jQtQtQtQtQt",
"QtQtQtQtQtQtQtQtQtQtQtQt.k.l.m.n.o.p.q.r.sQtQtQt",
"QtQtQtQtQtQtQtQtQtQtQtQt.t.u.v.w.x.y.z.A.BQtQtQt",
"QtQtQtQtQtQtQtQtQtQtQtQt.C.DQtQt.E.F.G.H.IQtQtQt",
"QtQtQtQtQtQtQtQtQtQtQtQt.J.K.L.M.N.O.PQt.QQtQtQt",
"QtQtQtQtQtQtQtQtQtQt.R.S.T.U.V.W.X.Y.Z.0.1QtQtQt",
"QtQtQtQtQtQtQtQtQt.2.3.4.5.6.7.8.9#.###a#bQtQtQt",
"QtQtQtQtQtQtQtQt#c#d#e#f#g#h#i#j#k#l#m#n#oQtQtQt",
"QtQtQtQt#p#q#r#s#t#u#v#w#x#y#z#A#B#C#D#E#F#GQtQt",
"QtQtQt#H#I#J#K#L#M#N#O#P#Q#R#S#T#U#V#W#X#Y#Z#0Qt",
"QtQtQt#1#2#3#4#5#6#7#8#9a.a#aaabacadaeafagahaiQt",
"QtQtQtajakalamanaoapaqarasatauavawaxayazaAaBQtQt",
"QtQtQtaCaDaEaFaGaHaIaJaKaLaMaNaOaPaQaRaSaTaUQtQt",
"aVaWaXaYaZa0a1a2a3a4a5a6a7a8a9b.b#babbbcQtQtQtQt",
"bdbebfbgbhbibjbkblbmbnbobpbqbrbsbtbuQtQtQtQtQtQt",
"QtbvbwbxbybzbAbBbCbDbEbFbGbHbIbJQtQtQtQtQtQtQtQt",
"QtbKbLbMbNbObPbQbRbSbTbUbVbWQtQtQtQtQtQtQtQtQtQt",
"QtbXbYbvbZb0b1b1b2b3b4b5b6b7QtQtQtQtQtQtQtQtQtQt",
"QtQtb8b9c.c#cacbcccdcecfQtQtQtQtQtQtQtQtQtQtQtQt",
"QtQtQtQtcgchcicjckQtQtQtQtQtQtQtQtQtQtQtQtQtQtQt",
"QtQtQtQtclcmcnQtQtQtQtQtQtQtQtQtQtQtQtQtQtQtQtQt"};
