/* XPM */
static char * install_20x20_xpm[] = {
"20 20 238 2",
"  	c None",
". 	c #C0C0C0",
"+ 	c #898989",
"@ 	c #404040",
"# 	c #242424",
"$ 	c #656565",
"% 	c #B7B7B7",
"& 	c #919191",
"* 	c #4A4A4A",
"= 	c #1B1B1B",
"- 	c #0C0C0C",
"; 	c #0A0A0A",
"> 	c #343434",
", 	c #565656",
"' 	c #888787",
") 	c #D4D3D3",
"! 	c #BDBDBD",
"~ 	c #8F8F8F",
"{ 	c #505050",
"] 	c #323232",
"^ 	c #222222",
"/ 	c #1C1C1C",
"( 	c #3B3B3B",
"_ 	c #474343",
": 	c #5F4A4A",
"< 	c #8E5454",
"[ 	c #793939",
"} 	c #C6C3C3",
"| 	c #949393",
"1 	c #585858",
"2 	c #3E3E3E",
"3 	c #373737",
"4 	c #2E2E2E",
"5 	c #353535",
"6 	c #393939",
"7 	c #6B5F5F",
"8 	c #925858",
"9 	c #A44343",
"0 	c #9F3737",
"a 	c #611D1D",
"b 	c #D6ABA6",
"c 	c #B6A5A4",
"d 	c #737171",
"e 	c #464646",
"f 	c #3C3C3C",
"g 	c #4C4C4C",
"h 	c #676767",
"i 	c #888888",
"j 	c #AF6D6D",
"k 	c #A74242",
"l 	c #B35C5C",
"m 	c #AB5454",
"n 	c #611F1F",
"o 	c #C5736F",
"p 	c #C46C66",
"q 	c #C49693",
"r 	c #998D8D",
"s 	c #6F6E6E",
"t 	c #9E9E9E",
"u 	c #B9B9B9",
"v 	c #AEAEAE",
"w 	c #A7A7A7",
"x 	c #A36464",
"y 	c #B45D5D",
"z 	c #AD4E4E",
"A 	c #9B3637",
"B 	c #622324",
"C 	c #D8C3C3",
"D 	c #C57D7A",
"E 	c #BB4F49",
"F 	c #BC5E59",
"G 	c #D2C2C0",
"H 	c #B0B0B0",
"I 	c #A2A2A2",
"J 	c #A4A4A4",
"K 	c #A9A9A9",
"L 	c #A66666",
"M 	c #A44040",
"N 	c #943E3E",
"O 	c #A5605E",
"P 	c #B3817D",
"Q 	c #9F6865",
"R 	c #975C57",
"S 	c #E2E2E2",
"T 	c #DDD9D8",
"U 	c #D0AEAC",
"V 	c #BA5C58",
"W 	c #C7ABA7",
"X 	c #A6A6A6",
"Y 	c #B4B4B4",
"Z 	c #AE7878",
"` 	c #954C4F",
" .	c #B46A5A",
"..	c #E1AB96",
"+.	c #EFC7B2",
"@.	c #E1A58E",
"#.	c #DAA08A",
"$.	c #B98D88",
"%.	c #DDDDDD",
"&.	c #D7D0D0",
"*.	c #CDC3C2",
"=.	c #A8A8A8",
"-.	c #ABABAB",
";.	c #B5B3B3",
">.	c #C2ACA6",
",.	c #A07173",
"'.	c #A53D3D",
").	c #BF574C",
"!.	c #DE9A83",
"~.	c #EDC0AD",
"{.	c #DF9F86",
"].	c #E9B8A3",
"^.	c #F4D6C3",
"/.	c #CEADA6",
"(.	c #C4C4C5",
"_.	c #CCCCCC",
":.	c #DFDFDF",
"<.	c #DCDCDC",
"[.	c #D1D1D1",
"}.	c #A3A3A3",
"|.	c #A9A4A3",
"1.	c #C7A69E",
"2.	c #AC7879",
"3.	c #DD7A66",
"4.	c #DA6757",
"5.	c #D47B78",
"6.	c #E8C8D2",
"7.	c #E6BFC8",
"8.	c #E9BDBA",
"9.	c #F0CABE",
"0.	c #DEB3AC",
"a.	c #B3BBC4",
"b.	c #C2C6CA",
"c.	c #DDDEDE",
"d.	c #E0E0E0",
"e.	c #C2C2C2",
"f.	c #7D7D7D",
"g.	c #888989",
"h.	c #92969A",
"i.	c #7C8794",
"j.	c #A17778",
"k.	c #DEA08B",
"l.	c #DD9985",
"m.	c #D7A6AB",
"n.	c #9A7C86",
"o.	c #ECDDEB",
"p.	c #E1ADBD",
"q.	c #DA939B",
"r.	c #D18991",
"s.	c #A8B3BF",
"t.	c #9DABB9",
"u.	c #BDC4CC",
"v.	c #DEDFDF",
"w.	c #C7C8C8",
"x.	c #868C91",
"y.	c #757C84",
"z.	c #878E96",
"A.	c #83878B",
"B.	c #928C8C",
"C.	c #9E9591",
"D.	c #999699",
"E.	c #66656D",
"F.	c #DEC4D6",
"G.	c #D696B0",
"H.	c #CF819D",
"I.	c #C57591",
"J.	c #A9B4C0",
"K.	c #8F9DAA",
"L.	c #8894A2",
"M.	c #A1ACB7",
"N.	c #A8B3BD",
"O.	c #49617B",
"P.	c #4F5F70",
"Q.	c #B5C1CE",
"R.	c #E5E5E5",
"S.	c #E4E4E4",
"T.	c #CFD4D8",
"U.	c #646E79",
"V.	c #DF8696",
"W.	c #D27798",
"X.	c #D18AB4",
"Y.	c #BC7BA1",
"Z.	c #939EA9",
"`.	c #86929F",
" +	c #788591",
".+	c #768797",
"++	c #8E9EAF",
"@+	c #3B5673",
"#+	c #4C5E6F",
"$+	c #B7C4D1",
"%+	c #F5F5F5",
"&+	c #F2F2F2",
"*+	c #EDEDED",
"=+	c #D1D6DA",
"-+	c #5D6770",
";+	c #E37E8B",
">+	c #D67096",
",+	c #CB81B4",
"'+	c #8C557B",
")+	c #6D7883",
"!+	c #707C88",
"~+	c #718090",
"{+	c #91A0B0",
"]+	c #445F79",
"^+	c #536372",
"/+	c #ECECEC",
"(+	c #E6E6E6",
"_+	c #E1E1E1",
":+	c #CED2D6",
"<+	c #DB869A",
"[+	c #B6567C",
"}+	c #824168",
"|+	c #59616A",
"1+	c #6B7887",
"2+	c #8895A3",
"3+	c #38495A",
"4+	c #4A5159",
"5+	c #AEBDCC",
"6+	c #D8DFE5",
"7+	c #D1D6DB",
"8+	c #D0D5DA",
"9+	c #C9CED4",
"0+	c #B3BEC8",
"a+	c #61666D",
"b+	c #686D72",
"c+	c #9FB1C2",
"d+	c #B1BBC4",
"e+	c #9EA5AD",
"f+	c #C4C9CC",
"g+	c #8E969E",
"h+	c #7E8F9F",
"i+	c #8794A0",
"j+	c #B4B8BD",
"k+	c #7E858C",
"l+	c #ACADAE",
"m+	c #81868B",
"n+	c #6B7885",
"o+	c #575F67",
"                                        ",
"              . + @ # $                 ",
"          % & * = - ; > , '             ",
"    ) ! ~ { ] ^ / = ( _ : < [           ",
"  } | 1 2 3 4 5 2 6 7 8 9 0 a           ",
"  b c d e f g h i % j k l m n           ",
"  o p q r s t u v w x y z A B           ",
"  C D E F G H I J K L M N O P Q R       ",
"  S T U V W J X v Y Z `  ...+.@.#.$.    ",
"  %.S %.&.*.=.-.;.>.,.'.).!.~.{.].^./.  ",
"  (._.:.<.[.}.I |.1.2.3.4.5.6.7.8.9.0.  ",
"  a.b.c.d.e.f.g.h.i.j.k.l.m.n.o.p.q.r.  ",
"  s.t.u.v.w.x.y.z.A.B.C.C.D.E.F.G.H.I.  ",
"  J.K.L.M.N.O.P.Q.R.S.S.S.T.U.V.W.X.Y.  ",
"  Z.`. +.+++@+#+$+%+&+&+*+=+-+;+>+,+'+  ",
"    )+!+~+{+]+^+$+%+/+(+_+:+-+<+[+}+    ",
"      |+1+2+3+4+5+6+7+8+9+0+-+          ",
"          a+  b+c+d+e+f+g+h+-+          ",
"                i+j+k+l+m+n+o+          ",
"                                        "};
